<?xml version="1.0" standalone="no"?>
<!DOCTYPE svg PUBLIC "-//W3C//DTD SVG 1.1//EN" "http://www.w3.org/Graphics/SVG/1.1/DTD/svg11.dtd">
<svg width="303mm" height="303mm" viewBox="-152 -151 303 303" xmlns="http://www.w3.org/2000/svg" version="1.1">
<title>OpenSCAD Model</title>
<path d="
M 150.259,151.066 L 150.5,150.966 L 150.707,150.807 L 150.866,150.6 L 150.966,150.359 L 151,150.1
 L 150.966,149.841 L 150.9,149.682 L 150.9,100.518 L 150.966,100.359 L 151,100.1 L 150.966,99.8412
 L 150.9,99.682 L 150.9,50.5179 L 150.966,50.3588 L 151,50.1 L 150.966,49.8412 L 150.9,49.682
 L 150.9,0.517944 L 150.966,0.35881 L 151,0.0999908 L 150.966,-0.158813 L 150.9,-0.317947 L 150.9,-49.482
 L 150.966,-49.6412 L 151,-49.9 L 150.966,-50.1588 L 150.9,-50.3179 L 150.9,-99.482 L 150.966,-99.6412
 L 151,-99.9 L 150.966,-100.159 L 150.9,-100.318 L 150.9,-149.482 L 150.966,-149.641 L 151,-149.9
 L 150.966,-150.159 L 150.866,-150.4 L 150.707,-150.607 L 150.651,-150.651 L 150.607,-150.707 L 150.4,-150.866
 L 150.159,-150.966 L 149.9,-151 L 149.641,-150.966 L 149.482,-150.9 L 100.318,-150.9 L 100.159,-150.966
 L 99.9,-151 L 99.6412,-150.966 L 99.482,-150.9 L 50.3179,-150.9 L 50.1588,-150.966 L 49.9,-151
 L 49.6412,-150.966 L 49.482,-150.9 L 0.317947,-150.9 L 0.158813,-150.966 L -0.0999908,-151 L -0.35881,-150.966
 L -0.517944,-150.9 L -49.682,-150.9 L -49.8412,-150.966 L -50.1,-151 L -50.3588,-150.966 L -50.5179,-150.9
 L -99.682,-150.9 L -99.8412,-150.966 L -100.1,-151 L -100.359,-150.966 L -100.518,-150.9 L -149.682,-150.9
 L -149.841,-150.966 L -150.1,-151 L -150.359,-150.966 L -150.6,-150.866 L -150.807,-150.707 L -150.966,-150.5
 L -151.066,-150.259 L -151.1,-150 L -151.1,150 L -151.066,150.259 L -150.966,150.5 L -150.807,150.707
 L -150.751,150.751 L -150.707,150.807 L -150.5,150.966 L -150.259,151.066 L -150,151.1 L 150,151.1
 z
M -99.1,-139.91 L -99.1,-148.9 L -90.11,-148.9 L -90.11,-139.91 z
M 100.9,-139.91 L 100.9,-148.9 L 109.89,-148.9 L 109.89,-139.91 z
M 50.9,-139.91 L 50.9,-148.9 L 59.89,-148.9 L 59.89,-139.91 z
M 0.899994,-139.91 L 0.899994,-148.9 L 9.89,-148.9 L 9.89,-139.91 z
M -49.1,-139.91 L -49.1,-148.9 L -40.11,-148.9 L -40.11,-139.91 z
M -149.1,-148.9 L -140.11,-148.9 L -140.11,-139.91 L -149.1,-139.91 z
M -140.09,-139.91 L -140.09,-148.9 L -130.11,-148.9 L -130.11,-139.91 z
M -130.09,-139.91 L -130.09,-148.9 L -120.11,-148.9 L -120.11,-139.91 z
M -120.09,-139.91 L -120.09,-148.9 L -110.11,-148.9 L -110.11,-139.91 z
M -110.09,-139.91 L -110.09,-148.9 L -101.1,-148.9 L -101.1,-139.91 z
M -40.09,-139.91 L -40.09,-148.9 L -30.11,-148.9 L -30.11,-139.91 z
M -30.09,-139.91 L -30.09,-148.9 L -20.11,-148.9 L -20.11,-139.91 z
M -20.09,-139.91 L -20.09,-148.9 L -10.11,-148.9 L -10.11,-139.91 z
M -10.09,-139.91 L -10.09,-148.9 L -1.09999,-148.9 L -1.09999,-139.91 z
M 9.90999,-139.91 L 9.90999,-148.9 L 19.89,-148.9 L 19.89,-139.91 z
M 19.91,-139.91 L 19.91,-148.9 L 29.89,-148.9 L 29.89,-139.91 z
M 29.91,-139.91 L 29.91,-148.9 L 39.89,-148.9 L 39.89,-139.91 z
M 39.91,-139.91 L 39.91,-148.9 L 48.9,-148.9 L 48.9,-139.91 z
M 59.91,-139.91 L 59.91,-148.9 L 69.89,-148.9 L 69.89,-139.91 z
M 69.91,-139.91 L 69.91,-148.9 L 79.89,-148.9 L 79.89,-139.91 z
M 79.91,-139.91 L 79.91,-148.9 L 89.89,-148.9 L 89.89,-139.91 z
M 89.91,-139.91 L 89.91,-148.9 L 98.9,-148.9 L 98.9,-139.91 z
M 109.91,-139.91 L 109.91,-148.9 L 119.89,-148.9 L 119.89,-139.91 z
M 119.91,-139.91 L 119.91,-148.9 L 129.89,-148.9 L 129.89,-139.91 z
M 129.91,-139.91 L 129.91,-148.9 L 139.89,-148.9 L 139.89,-139.91 z
M 139.91,-139.91 L 139.91,-148.9 L 148.9,-148.9 L 148.9,-139.91 z
M -90.09,-139.91 L -90.09,-148.9 L -80.11,-148.9 L -80.11,-139.91 z
M -80.09,-139.91 L -80.09,-148.9 L -70.11,-148.9 L -70.11,-139.91 z
M -70.09,-139.91 L -70.09,-148.9 L -60.11,-148.9 L -60.11,-139.91 z
M -60.09,-139.91 L -60.09,-148.9 L -51.1,-148.9 L -51.1,-139.91 z
M -149.1,-139.89 L -140.11,-139.89 L -140.11,-129.91 L -149.1,-129.91 z
M -110.09,-129.91 L -110.09,-139.89 L -101.1,-139.89 L -101.1,-129.91 z
M -90.09,-129.91 L -90.09,-139.89 L -80.11,-139.89 L -80.11,-129.91 z
M 59.91,-129.91 L 59.91,-139.89 L 69.89,-139.89 L 69.89,-129.91 z
M -80.09,-129.91 L -80.09,-139.89 L -70.11,-139.89 L -70.11,-129.91 z
M -70.09,-129.91 L -70.09,-139.89 L -60.11,-139.89 L -60.11,-129.91 z
M -60.09,-129.91 L -60.09,-139.89 L -51.1,-139.89 L -51.1,-129.91 z
M -40.09,-129.91 L -40.09,-139.89 L -30.11,-139.89 L -30.11,-129.91 z
M -30.09,-129.91 L -30.09,-139.89 L -20.11,-139.89 L -20.11,-129.91 z
M -20.09,-129.91 L -20.09,-139.89 L -10.11,-139.89 L -10.11,-129.91 z
M -10.09,-129.91 L -10.09,-139.89 L -1.09999,-139.89 L -1.09999,-129.91 z
M 9.90999,-129.91 L 9.90999,-139.89 L 19.89,-139.89 L 19.89,-129.91 z
M 19.91,-129.91 L 19.91,-139.89 L 29.89,-139.89 L 29.89,-129.91 z
M 29.91,-129.91 L 29.91,-139.89 L 39.89,-139.89 L 39.89,-129.91 z
M 39.91,-129.91 L 39.91,-139.89 L 48.9,-139.89 L 48.9,-129.91 z
M -130.09,-129.91 L -130.09,-139.89 L -120.11,-139.89 L -120.11,-129.91 z
M 139.91,-129.91 L 139.91,-139.89 L 148.9,-139.89 L 148.9,-129.91 z
M 129.91,-129.91 L 129.91,-139.89 L 139.89,-139.89 L 139.89,-129.91 z
M 119.91,-129.91 L 119.91,-139.89 L 129.89,-139.89 L 129.89,-129.91 z
M 109.91,-129.91 L 109.91,-139.89 L 119.89,-139.89 L 119.89,-129.91 z
M 89.91,-129.91 L 89.91,-139.89 L 98.9,-139.89 L 98.9,-129.91 z
M 79.91,-129.91 L 79.91,-139.89 L 89.89,-139.89 L 89.89,-129.91 z
M 69.91,-129.91 L 69.91,-139.89 L 79.89,-139.89 L 79.89,-129.91 z
M -140.09,-129.91 L -140.09,-139.89 L -130.11,-139.89 L -130.11,-129.91 z
M -120.09,-129.91 L -120.09,-139.89 L -110.11,-139.89 L -110.11,-129.91 z
M 100.9,-129.91 L 100.9,-139.89 L 109.89,-139.89 L 109.89,-129.91 z
M 50.9,-129.91 L 50.9,-139.89 L 59.89,-139.89 L 59.89,-129.91 z
M 0.899994,-129.91 L 0.899994,-139.89 L 9.89,-139.89 L 9.89,-129.91 z
M -49.1,-129.91 L -49.1,-139.89 L -40.11,-139.89 L -40.11,-129.91 z
M -99.1,-129.91 L -99.1,-139.89 L -90.11,-139.89 L -90.11,-129.91 z
M -149.1,-129.89 L -140.11,-129.89 L -140.11,-119.91 L -149.1,-119.91 z
M -10.09,-119.91 L -10.09,-129.89 L -1.09999,-129.89 L -1.09999,-119.91 z
M -20.09,-119.91 L -20.09,-129.89 L -10.11,-129.89 L -10.11,-119.91 z
M -30.09,-119.91 L -30.09,-129.89 L -20.11,-129.89 L -20.11,-119.91 z
M -40.09,-119.91 L -40.09,-129.89 L -30.11,-129.89 L -30.11,-119.91 z
M -60.09,-119.91 L -60.09,-129.89 L -51.1,-129.89 L -51.1,-119.91 z
M 139.91,-119.91 L 139.91,-129.89 L 148.9,-129.89 L 148.9,-119.91 z
M 129.91,-119.91 L 129.91,-129.89 L 139.89,-129.89 L 139.89,-119.91 z
M 119.91,-119.91 L 119.91,-129.89 L 129.89,-129.89 L 129.89,-119.91 z
M 109.91,-119.91 L 109.91,-129.89 L 119.89,-129.89 L 119.89,-119.91 z
M 89.91,-119.91 L 89.91,-129.89 L 98.9,-129.89 L 98.9,-119.91 z
M 79.91,-119.91 L 79.91,-129.89 L 89.89,-129.89 L 89.89,-119.91 z
M 69.91,-119.91 L 69.91,-129.89 L 79.89,-129.89 L 79.89,-119.91 z
M 59.91,-119.91 L 59.91,-129.89 L 69.89,-129.89 L 69.89,-119.91 z
M 39.91,-119.91 L 39.91,-129.89 L 48.9,-129.89 L 48.9,-119.91 z
M 29.91,-119.91 L 29.91,-129.89 L 39.89,-129.89 L 39.89,-119.91 z
M 19.91,-119.91 L 19.91,-129.89 L 29.89,-129.89 L 29.89,-119.91 z
M 9.90999,-119.91 L 9.90999,-129.89 L 19.89,-129.89 L 19.89,-119.91 z
M -80.09,-119.91 L -80.09,-129.89 L -70.11,-129.89 L -70.11,-119.91 z
M -90.09,-119.91 L -90.09,-129.89 L -80.11,-129.89 L -80.11,-119.91 z
M -70.09,-119.91 L -70.09,-129.89 L -60.11,-129.89 L -60.11,-119.91 z
M -110.09,-119.91 L -110.09,-129.89 L -101.1,-129.89 L -101.1,-119.91 z
M -120.09,-119.91 L -120.09,-129.89 L -110.11,-129.89 L -110.11,-119.91 z
M -130.09,-119.91 L -130.09,-129.89 L -120.11,-129.89 L -120.11,-119.91 z
M -140.09,-119.91 L -140.09,-129.89 L -130.11,-129.89 L -130.11,-119.91 z
M -99.1,-119.91 L -99.1,-129.89 L -90.11,-129.89 L -90.11,-119.91 z
M 50.9,-119.91 L 50.9,-129.89 L 59.89,-129.89 L 59.89,-119.91 z
M 100.9,-119.91 L 100.9,-129.89 L 109.89,-129.89 L 109.89,-119.91 z
M -49.1,-119.91 L -49.1,-129.89 L -40.11,-129.89 L -40.11,-119.91 z
M 0.899994,-119.91 L 0.899994,-129.89 L 9.89,-129.89 L 9.89,-119.91 z
M -149.1,-119.89 L -140.11,-119.89 L -140.11,-109.91 L -149.1,-109.91 z
M 29.91,-109.91 L 29.91,-119.89 L 39.89,-119.89 L 39.89,-109.91 z
M -60.09,-109.91 L -60.09,-119.89 L -51.1,-119.89 L -51.1,-109.91 z
M 19.91,-109.91 L 19.91,-119.89 L 29.89,-119.89 L 29.89,-109.91 z
M 9.90999,-109.91 L 9.90999,-119.89 L 19.89,-119.89 L 19.89,-109.91 z
M -10.09,-109.91 L -10.09,-119.89 L -1.09999,-119.89 L -1.09999,-109.91 z
M -20.09,-109.91 L -20.09,-119.89 L -10.11,-119.89 L -10.11,-109.91 z
M -30.09,-109.91 L -30.09,-119.89 L -20.11,-119.89 L -20.11,-109.91 z
M -40.09,-109.91 L -40.09,-119.89 L -30.11,-119.89 L -30.11,-109.91 z
M -70.09,-109.91 L -70.09,-119.89 L -60.11,-119.89 L -60.11,-109.91 z
M 39.91,-109.91 L 39.91,-119.89 L 48.9,-119.89 L 48.9,-109.91 z
M 59.91,-109.91 L 59.91,-119.89 L 69.89,-119.89 L 69.89,-109.91 z
M 69.91,-109.91 L 69.91,-119.89 L 79.89,-119.89 L 79.89,-109.91 z
M 79.91,-109.91 L 79.91,-119.89 L 89.89,-119.89 L 89.89,-109.91 z
M 89.91,-109.91 L 89.91,-119.89 L 98.9,-119.89 L 98.9,-109.91 z
M 109.91,-109.91 L 109.91,-119.89 L 119.89,-119.89 L 119.89,-109.91 z
M 119.91,-109.91 L 119.91,-119.89 L 129.89,-119.89 L 129.89,-109.91 z
M 129.91,-109.91 L 129.91,-119.89 L 139.89,-119.89 L 139.89,-109.91 z
M 139.91,-109.91 L 139.91,-119.89 L 148.9,-119.89 L 148.9,-109.91 z
M -80.09,-109.91 L -80.09,-119.89 L -70.11,-119.89 L -70.11,-109.91 z
M -90.09,-109.91 L -90.09,-119.89 L -80.11,-119.89 L -80.11,-109.91 z
M -110.09,-109.91 L -110.09,-119.89 L -101.1,-119.89 L -101.1,-109.91 z
M -120.09,-109.91 L -120.09,-119.89 L -110.11,-119.89 L -110.11,-109.91 z
M -130.09,-109.91 L -130.09,-119.89 L -120.11,-119.89 L -120.11,-109.91 z
M -140.09,-109.91 L -140.09,-119.89 L -130.11,-119.89 L -130.11,-109.91 z
M -99.1,-109.91 L -99.1,-119.89 L -90.11,-119.89 L -90.11,-109.91 z
M 100.9,-109.91 L 100.9,-119.89 L 109.89,-119.89 L 109.89,-109.91 z
M 50.9,-109.91 L 50.9,-119.89 L 59.89,-119.89 L 59.89,-109.91 z
M -49.1,-109.91 L -49.1,-119.89 L -40.11,-119.89 L -40.11,-109.91 z
M 0.899994,-109.91 L 0.899994,-119.89 L 9.89,-119.89 L 9.89,-109.91 z
M -149.1,-100.9 L -149.1,-109.89 L -140.11,-109.89 L -140.11,-100.9 z
M 109.91,-100.9 L 109.91,-109.89 L 119.89,-109.89 L 119.89,-100.9 z
M -70.09,-100.9 L -70.09,-109.89 L -60.11,-109.89 L -60.11,-100.9 z
M 119.91,-100.9 L 119.91,-109.89 L 129.89,-109.89 L 129.89,-100.9 z
M 129.91,-100.9 L 129.91,-109.89 L 139.89,-109.89 L 139.89,-100.9 z
M -10.09,-100.9 L -10.09,-109.89 L -1.09999,-109.89 L -1.09999,-100.9 z
M -20.09,-100.9 L -20.09,-109.89 L -10.11,-109.89 L -10.11,-100.9 z
M -30.09,-100.9 L -30.09,-109.89 L -20.11,-109.89 L -20.11,-100.9 z
M -40.09,-100.9 L -40.09,-109.89 L -30.11,-109.89 L -30.11,-100.9 z
M 139.91,-100.9 L 139.91,-109.89 L 148.9,-109.89 L 148.9,-100.9 z
M -60.09,-100.9 L -60.09,-109.89 L -51.1,-109.89 L -51.1,-100.9 z
M 89.91,-100.9 L 89.91,-109.89 L 98.9,-109.89 L 98.9,-100.9 z
M 79.91,-100.9 L 79.91,-109.89 L 89.89,-109.89 L 89.89,-100.9 z
M 69.91,-100.9 L 69.91,-109.89 L 79.89,-109.89 L 79.89,-100.9 z
M 59.91,-100.9 L 59.91,-109.89 L 69.89,-109.89 L 69.89,-100.9 z
M 39.91,-100.9 L 39.91,-109.89 L 48.9,-109.89 L 48.9,-100.9 z
M 29.91,-100.9 L 29.91,-109.89 L 39.89,-109.89 L 39.89,-100.9 z
M 19.91,-100.9 L 19.91,-109.89 L 29.89,-109.89 L 29.89,-100.9 z
M 9.90999,-100.9 L 9.90999,-109.89 L 19.89,-109.89 L 19.89,-100.9 z
M -90.09,-100.9 L -90.09,-109.89 L -80.11,-109.89 L -80.11,-100.9 z
M -110.09,-100.9 L -110.09,-109.89 L -101.1,-109.89 L -101.1,-100.9 z
M -120.09,-100.9 L -120.09,-109.89 L -110.11,-109.89 L -110.11,-100.9 z
M -130.09,-100.9 L -130.09,-109.89 L -120.11,-109.89 L -120.11,-100.9 z
M -140.09,-100.9 L -140.09,-109.89 L -130.11,-109.89 L -130.11,-100.9 z
M -80.09,-100.9 L -80.09,-109.89 L -70.11,-109.89 L -70.11,-100.9 z
M -99.1,-100.9 L -99.1,-109.89 L -90.11,-109.89 L -90.11,-100.9 z
M 0.899994,-100.9 L 0.899994,-109.89 L 9.89,-109.89 L 9.89,-100.9 z
M 50.9,-100.9 L 50.9,-109.89 L 59.89,-109.89 L 59.89,-100.9 z
M 100.9,-100.9 L 100.9,-109.89 L 109.89,-109.89 L 109.89,-100.9 z
M -49.1,-100.9 L -49.1,-109.89 L -40.11,-109.89 L -40.11,-100.9 z
M 100.9,-89.91 L 100.9,-98.9 L 109.89,-98.9 L 109.89,-89.91 z
M 50.9,-89.91 L 50.9,-98.9 L 59.89,-98.9 L 59.89,-89.91 z
M 0.899994,-89.91 L 0.899994,-98.9 L 9.89,-98.9 L 9.89,-89.91 z
M -49.1,-89.91 L -49.1,-98.9 L -40.11,-98.9 L -40.11,-89.91 z
M -99.1,-89.91 L -99.1,-98.9 L -90.11,-98.9 L -90.11,-89.91 z
M -149.1,-98.9 L -140.11,-98.9 L -140.11,-89.91 L -149.1,-89.91 z
M -140.09,-89.91 L -140.09,-98.9 L -130.11,-98.9 L -130.11,-89.91 z
M -130.09,-89.91 L -130.09,-98.9 L -120.11,-98.9 L -120.11,-89.91 z
M -120.09,-89.91 L -120.09,-98.9 L -110.11,-98.9 L -110.11,-89.91 z
M -110.09,-89.91 L -110.09,-98.9 L -101.1,-98.9 L -101.1,-89.91 z
M -90.09,-89.91 L -90.09,-98.9 L -80.11,-98.9 L -80.11,-89.91 z
M -80.09,-89.91 L -80.09,-98.9 L -70.11,-98.9 L -70.11,-89.91 z
M -70.09,-89.91 L -70.09,-98.9 L -60.11,-98.9 L -60.11,-89.91 z
M -60.09,-89.91 L -60.09,-98.9 L -51.1,-98.9 L -51.1,-89.91 z
M -40.09,-89.91 L -40.09,-98.9 L -30.11,-98.9 L -30.11,-89.91 z
M -30.09,-89.91 L -30.09,-98.9 L -20.11,-98.9 L -20.11,-89.91 z
M -20.09,-89.91 L -20.09,-98.9 L -10.11,-98.9 L -10.11,-89.91 z
M -10.09,-89.91 L -10.09,-98.9 L -1.09999,-98.9 L -1.09999,-89.91 z
M 9.90999,-89.91 L 9.90999,-98.9 L 19.89,-98.9 L 19.89,-89.91 z
M 19.91,-89.91 L 19.91,-98.9 L 29.89,-98.9 L 29.89,-89.91 z
M 29.91,-89.91 L 29.91,-98.9 L 39.89,-98.9 L 39.89,-89.91 z
M 39.91,-89.91 L 39.91,-98.9 L 48.9,-98.9 L 48.9,-89.91 z
M 59.91,-89.91 L 59.91,-98.9 L 69.89,-98.9 L 69.89,-89.91 z
M 69.91,-89.91 L 69.91,-98.9 L 79.89,-98.9 L 79.89,-89.91 z
M 79.91,-89.91 L 79.91,-98.9 L 89.89,-98.9 L 89.89,-89.91 z
M 89.91,-89.91 L 89.91,-98.9 L 98.9,-98.9 L 98.9,-89.91 z
M 109.91,-89.91 L 109.91,-98.9 L 119.89,-98.9 L 119.89,-89.91 z
M 119.91,-89.91 L 119.91,-98.9 L 129.89,-98.9 L 129.89,-89.91 z
M 129.91,-89.91 L 129.91,-98.9 L 139.89,-98.9 L 139.89,-89.91 z
M 139.91,-89.91 L 139.91,-98.9 L 148.9,-98.9 L 148.9,-89.91 z
M -149.1,-89.89 L -140.11,-89.89 L -140.11,-79.91 L -149.1,-79.91 z
M 59.91,-79.91 L 59.91,-89.89 L 69.89,-89.89 L 69.89,-79.91 z
M -30.09,-79.91 L -30.09,-89.89 L -20.11,-89.89 L -20.11,-79.91 z
M -20.09,-79.91 L -20.09,-89.89 L -10.11,-89.89 L -10.11,-79.91 z
M -10.09,-79.91 L -10.09,-89.89 L -1.09999,-89.89 L -1.09999,-79.91 z
M 9.90999,-79.91 L 9.90999,-89.89 L 19.89,-89.89 L 19.89,-79.91 z
M 19.91,-79.91 L 19.91,-89.89 L 29.89,-89.89 L 29.89,-79.91 z
M 29.91,-79.91 L 29.91,-89.89 L 39.89,-89.89 L 39.89,-79.91 z
M 39.91,-79.91 L 39.91,-89.89 L 48.9,-89.89 L 48.9,-79.91 z
M 139.91,-79.91 L 139.91,-89.89 L 148.9,-89.89 L 148.9,-79.91 z
M 129.91,-79.91 L 129.91,-89.89 L 139.89,-89.89 L 139.89,-79.91 z
M 119.91,-79.91 L 119.91,-89.89 L 129.89,-89.89 L 129.89,-79.91 z
M 109.91,-79.91 L 109.91,-89.89 L 119.89,-89.89 L 119.89,-79.91 z
M -80.09,-79.91 L -80.09,-89.89 L -70.11,-89.89 L -70.11,-79.91 z
M 69.91,-79.91 L 69.91,-89.89 L 79.89,-89.89 L 79.89,-79.91 z
M 79.91,-79.91 L 79.91,-89.89 L 89.89,-89.89 L 89.89,-79.91 z
M 89.91,-79.91 L 89.91,-89.89 L 98.9,-89.89 L 98.9,-79.91 z
M -140.09,-79.91 L -140.09,-89.89 L -130.11,-89.89 L -130.11,-79.91 z
M -130.09,-79.91 L -130.09,-89.89 L -120.11,-89.89 L -120.11,-79.91 z
M -120.09,-79.91 L -120.09,-89.89 L -110.11,-89.89 L -110.11,-79.91 z
M -110.09,-79.91 L -110.09,-89.89 L -101.1,-89.89 L -101.1,-79.91 z
M -90.09,-79.91 L -90.09,-89.89 L -80.11,-89.89 L -80.11,-79.91 z
M -40.09,-79.91 L -40.09,-89.89 L -30.11,-89.89 L -30.11,-79.91 z
M -70.09,-79.91 L -70.09,-89.89 L -60.11,-89.89 L -60.11,-79.91 z
M -60.09,-79.91 L -60.09,-89.89 L -51.1,-89.89 L -51.1,-79.91 z
M -99.1,-79.91 L -99.1,-89.89 L -90.11,-89.89 L -90.11,-79.91 z
M -49.1,-79.91 L -49.1,-89.89 L -40.11,-89.89 L -40.11,-79.91 z
M 100.9,-79.91 L 100.9,-89.89 L 109.89,-89.89 L 109.89,-79.91 z
M 50.9,-79.91 L 50.9,-89.89 L 59.89,-89.89 L 59.89,-79.91 z
M 0.899994,-79.91 L 0.899994,-89.89 L 9.89,-89.89 L 9.89,-79.91 z
M -149.1,-79.89 L -140.11,-79.89 L -140.11,-69.91 L -149.1,-69.91 z
M -30.09,-69.91 L -30.09,-79.89 L -20.11,-79.89 L -20.11,-69.91 z
M -40.09,-69.91 L -40.09,-79.89 L -30.11,-79.89 L -30.11,-69.91 z
M -20.09,-69.91 L -20.09,-79.89 L -10.11,-79.89 L -10.11,-69.91 z
M -10.09,-69.91 L -10.09,-79.89 L -1.09999,-79.89 L -1.09999,-69.91 z
M 9.90999,-69.91 L 9.90999,-79.89 L 19.89,-79.89 L 19.89,-69.91 z
M 19.91,-69.91 L 19.91,-79.89 L 29.89,-79.89 L 29.89,-69.91 z
M 29.91,-69.91 L 29.91,-79.89 L 39.89,-79.89 L 39.89,-69.91 z
M 39.91,-69.91 L 39.91,-79.89 L 48.9,-79.89 L 48.9,-69.91 z
M 59.91,-69.91 L 59.91,-79.89 L 69.89,-79.89 L 69.89,-69.91 z
M 69.91,-69.91 L 69.91,-79.89 L 79.89,-79.89 L 79.89,-69.91 z
M 79.91,-69.91 L 79.91,-79.89 L 89.89,-79.89 L 89.89,-69.91 z
M 89.91,-69.91 L 89.91,-79.89 L 98.9,-79.89 L 98.9,-69.91 z
M 109.91,-69.91 L 109.91,-79.89 L 119.89,-79.89 L 119.89,-69.91 z
M 119.91,-69.91 L 119.91,-79.89 L 129.89,-79.89 L 129.89,-69.91 z
M 129.91,-69.91 L 129.91,-79.89 L 139.89,-79.89 L 139.89,-69.91 z
M 139.91,-69.91 L 139.91,-79.89 L 148.9,-79.89 L 148.9,-69.91 z
M -140.09,-69.91 L -140.09,-79.89 L -130.11,-79.89 L -130.11,-69.91 z
M -130.09,-69.91 L -130.09,-79.89 L -120.11,-79.89 L -120.11,-69.91 z
M -120.09,-69.91 L -120.09,-79.89 L -110.11,-79.89 L -110.11,-69.91 z
M -110.09,-69.91 L -110.09,-79.89 L -101.1,-79.89 L -101.1,-69.91 z
M -90.09,-69.91 L -90.09,-79.89 L -80.11,-79.89 L -80.11,-69.91 z
M -80.09,-69.91 L -80.09,-79.89 L -70.11,-79.89 L -70.11,-69.91 z
M -70.09,-69.91 L -70.09,-79.89 L -60.11,-79.89 L -60.11,-69.91 z
M -60.09,-69.91 L -60.09,-79.89 L -51.1,-79.89 L -51.1,-69.91 z
M -99.1,-69.91 L -99.1,-79.89 L -90.11,-79.89 L -90.11,-69.91 z
M -49.1,-69.91 L -49.1,-79.89 L -40.11,-79.89 L -40.11,-69.91 z
M 100.9,-69.91 L 100.9,-79.89 L 109.89,-79.89 L 109.89,-69.91 z
M 50.9,-69.91 L 50.9,-79.89 L 59.89,-79.89 L 59.89,-69.91 z
M 0.899994,-69.91 L 0.899994,-79.89 L 9.89,-79.89 L 9.89,-69.91 z
M -149.1,-69.89 L -140.11,-69.89 L -140.11,-59.91 L -149.1,-59.91 z
M -30.09,-59.91 L -30.09,-69.89 L -20.11,-69.89 L -20.11,-59.91 z
M -40.09,-59.91 L -40.09,-69.89 L -30.11,-69.89 L -30.11,-59.91 z
M -20.09,-59.91 L -20.09,-69.89 L -10.11,-69.89 L -10.11,-59.91 z
M -10.09,-59.91 L -10.09,-69.89 L -1.09999,-69.89 L -1.09999,-59.91 z
M 9.90999,-59.91 L 9.90999,-69.89 L 19.89,-69.89 L 19.89,-59.91 z
M 19.91,-59.91 L 19.91,-69.89 L 29.89,-69.89 L 29.89,-59.91 z
M 29.91,-59.91 L 29.91,-69.89 L 39.89,-69.89 L 39.89,-59.91 z
M 39.91,-59.91 L 39.91,-69.89 L 48.9,-69.89 L 48.9,-59.91 z
M 59.91,-59.91 L 59.91,-69.89 L 69.89,-69.89 L 69.89,-59.91 z
M 139.91,-59.91 L 139.91,-69.89 L 148.9,-69.89 L 148.9,-59.91 z
M 129.91,-59.91 L 129.91,-69.89 L 139.89,-69.89 L 139.89,-59.91 z
M 119.91,-59.91 L 119.91,-69.89 L 129.89,-69.89 L 129.89,-59.91 z
M 109.91,-59.91 L 109.91,-69.89 L 119.89,-69.89 L 119.89,-59.91 z
M 89.91,-59.91 L 89.91,-69.89 L 98.9,-69.89 L 98.9,-59.91 z
M 79.91,-59.91 L 79.91,-69.89 L 89.89,-69.89 L 89.89,-59.91 z
M 69.91,-59.91 L 69.91,-69.89 L 79.89,-69.89 L 79.89,-59.91 z
M -140.09,-59.91 L -140.09,-69.89 L -130.11,-69.89 L -130.11,-59.91 z
M -130.09,-59.91 L -130.09,-69.89 L -120.11,-69.89 L -120.11,-59.91 z
M -120.09,-59.91 L -120.09,-69.89 L -110.11,-69.89 L -110.11,-59.91 z
M -110.09,-59.91 L -110.09,-69.89 L -101.1,-69.89 L -101.1,-59.91 z
M -90.09,-59.91 L -90.09,-69.89 L -80.11,-69.89 L -80.11,-59.91 z
M -80.09,-59.91 L -80.09,-69.89 L -70.11,-69.89 L -70.11,-59.91 z
M -70.09,-59.91 L -70.09,-69.89 L -60.11,-69.89 L -60.11,-59.91 z
M -60.09,-59.91 L -60.09,-69.89 L -51.1,-69.89 L -51.1,-59.91 z
M -99.1,-59.91 L -99.1,-69.89 L -90.11,-69.89 L -90.11,-59.91 z
M -49.1,-59.91 L -49.1,-69.89 L -40.11,-69.89 L -40.11,-59.91 z
M 100.9,-59.91 L 100.9,-69.89 L 109.89,-69.89 L 109.89,-59.91 z
M 50.9,-59.91 L 50.9,-69.89 L 59.89,-69.89 L 59.89,-59.91 z
M 0.899994,-59.91 L 0.899994,-69.89 L 9.89,-69.89 L 9.89,-59.91 z
M -149.1,-50.9 L -149.1,-59.89 L -140.11,-59.89 L -140.11,-50.9 z
M -30.09,-50.9 L -30.09,-59.89 L -20.11,-59.89 L -20.11,-50.9 z
M -40.09,-50.9 L -40.09,-59.89 L -30.11,-59.89 L -30.11,-50.9 z
M -20.09,-50.9 L -20.09,-59.89 L -10.11,-59.89 L -10.11,-50.9 z
M -10.09,-50.9 L -10.09,-59.89 L -1.09999,-59.89 L -1.09999,-50.9 z
M 9.90999,-50.9 L 9.90999,-59.89 L 19.89,-59.89 L 19.89,-50.9 z
M 19.91,-50.9 L 19.91,-59.89 L 29.89,-59.89 L 29.89,-50.9 z
M 29.91,-50.9 L 29.91,-59.89 L 39.89,-59.89 L 39.89,-50.9 z
M 39.91,-50.9 L 39.91,-59.89 L 48.9,-59.89 L 48.9,-50.9 z
M 59.91,-50.9 L 59.91,-59.89 L 69.89,-59.89 L 69.89,-50.9 z
M 69.91,-50.9 L 69.91,-59.89 L 79.89,-59.89 L 79.89,-50.9 z
M 79.91,-50.9 L 79.91,-59.89 L 89.89,-59.89 L 89.89,-50.9 z
M 89.91,-50.9 L 89.91,-59.89 L 98.9,-59.89 L 98.9,-50.9 z
M 109.91,-50.9 L 109.91,-59.89 L 119.89,-59.89 L 119.89,-50.9 z
M 119.91,-50.9 L 119.91,-59.89 L 129.89,-59.89 L 129.89,-50.9 z
M 129.91,-50.9 L 129.91,-59.89 L 139.89,-59.89 L 139.89,-50.9 z
M 139.91,-50.9 L 139.91,-59.89 L 148.9,-59.89 L 148.9,-50.9 z
M -140.09,-50.9 L -140.09,-59.89 L -130.11,-59.89 L -130.11,-50.9 z
M -130.09,-50.9 L -130.09,-59.89 L -120.11,-59.89 L -120.11,-50.9 z
M -120.09,-50.9 L -120.09,-59.89 L -110.11,-59.89 L -110.11,-50.9 z
M -110.09,-50.9 L -110.09,-59.89 L -101.1,-59.89 L -101.1,-50.9 z
M -90.09,-50.9 L -90.09,-59.89 L -80.11,-59.89 L -80.11,-50.9 z
M -80.09,-50.9 L -80.09,-59.89 L -70.11,-59.89 L -70.11,-50.9 z
M -70.09,-50.9 L -70.09,-59.89 L -60.11,-59.89 L -60.11,-50.9 z
M -60.09,-50.9 L -60.09,-59.89 L -51.1,-59.89 L -51.1,-50.9 z
M -99.1,-50.9 L -99.1,-59.89 L -90.11,-59.89 L -90.11,-50.9 z
M -49.1,-50.9 L -49.1,-59.89 L -40.11,-59.89 L -40.11,-50.9 z
M 100.9,-50.9 L 100.9,-59.89 L 109.89,-59.89 L 109.89,-50.9 z
M 50.9,-50.9 L 50.9,-59.89 L 59.89,-59.89 L 59.89,-50.9 z
M 0.899994,-50.9 L 0.899994,-59.89 L 9.89,-59.89 L 9.89,-50.9 z
M 100.9,-39.91 L 100.9,-48.9 L 109.89,-48.9 L 109.89,-39.91 z
M -149.1,-48.9 L -140.11,-48.9 L -140.11,-39.91 L -149.1,-39.91 z
M -99.1,-39.91 L -99.1,-48.9 L -90.11,-48.9 L -90.11,-39.91 z
M -49.1,-39.91 L -49.1,-48.9 L -40.11,-48.9 L -40.11,-39.91 z
M 0.899994,-39.91 L 0.899994,-48.9 L 9.89,-48.9 L 9.89,-39.91 z
M 50.9,-39.91 L 50.9,-48.9 L 59.89,-48.9 L 59.89,-39.91 z
M 59.91,-39.91 L 59.91,-48.9 L 69.89,-48.9 L 69.89,-39.91 z
M 69.91,-39.91 L 69.91,-48.9 L 79.89,-48.9 L 79.89,-39.91 z
M 79.91,-39.91 L 79.91,-48.9 L 89.89,-48.9 L 89.89,-39.91 z
M 89.91,-39.91 L 89.91,-48.9 L 98.9,-48.9 L 98.9,-39.91 z
M 9.90999,-39.91 L 9.90999,-48.9 L 19.89,-48.9 L 19.89,-39.91 z
M 19.91,-39.91 L 19.91,-48.9 L 29.89,-48.9 L 29.89,-39.91 z
M 29.91,-39.91 L 29.91,-48.9 L 39.89,-48.9 L 39.89,-39.91 z
M 39.91,-39.91 L 39.91,-48.9 L 48.9,-48.9 L 48.9,-39.91 z
M -40.09,-39.91 L -40.09,-48.9 L -30.11,-48.9 L -30.11,-39.91 z
M -30.09,-39.91 L -30.09,-48.9 L -20.11,-48.9 L -20.11,-39.91 z
M -20.09,-39.91 L -20.09,-48.9 L -10.11,-48.9 L -10.11,-39.91 z
M -10.09,-39.91 L -10.09,-48.9 L -1.09999,-48.9 L -1.09999,-39.91 z
M -90.09,-39.91 L -90.09,-48.9 L -80.11,-48.9 L -80.11,-39.91 z
M -80.09,-39.91 L -80.09,-48.9 L -70.11,-48.9 L -70.11,-39.91 z
M -70.09,-39.91 L -70.09,-48.9 L -60.11,-48.9 L -60.11,-39.91 z
M -60.09,-39.91 L -60.09,-48.9 L -51.1,-48.9 L -51.1,-39.91 z
M -140.09,-39.91 L -140.09,-48.9 L -130.11,-48.9 L -130.11,-39.91 z
M -130.09,-39.91 L -130.09,-48.9 L -120.11,-48.9 L -120.11,-39.91 z
M -120.09,-39.91 L -120.09,-48.9 L -110.11,-48.9 L -110.11,-39.91 z
M -110.09,-39.91 L -110.09,-48.9 L -101.1,-48.9 L -101.1,-39.91 z
M 109.91,-39.91 L 109.91,-48.9 L 119.89,-48.9 L 119.89,-39.91 z
M 119.91,-39.91 L 119.91,-48.9 L 129.89,-48.9 L 129.89,-39.91 z
M 129.91,-39.91 L 129.91,-48.9 L 139.89,-48.9 L 139.89,-39.91 z
M 139.91,-39.91 L 139.91,-48.9 L 148.9,-48.9 L 148.9,-39.91 z
M -149.1,-39.89 L -140.11,-39.89 L -140.11,-29.91 L -149.1,-29.91 z
M 9.90999,-29.91 L 9.90999,-39.89 L 19.89,-39.89 L 19.89,-29.91 z
M 19.91,-29.91 L 19.91,-39.89 L 29.89,-39.89 L 29.89,-29.91 z
M 29.91,-29.91 L 29.91,-39.89 L 39.89,-39.89 L 39.89,-29.91 z
M 39.91,-29.91 L 39.91,-39.89 L 48.9,-39.89 L 48.9,-29.91 z
M 59.91,-29.91 L 59.91,-39.89 L 69.89,-39.89 L 69.89,-29.91 z
M 69.91,-29.91 L 69.91,-39.89 L 79.89,-39.89 L 79.89,-29.91 z
M 79.91,-29.91 L 79.91,-39.89 L 89.89,-39.89 L 89.89,-29.91 z
M 89.91,-29.91 L 89.91,-39.89 L 98.9,-39.89 L 98.9,-29.91 z
M 109.91,-29.91 L 109.91,-39.89 L 119.89,-39.89 L 119.89,-29.91 z
M 119.91,-29.91 L 119.91,-39.89 L 129.89,-39.89 L 129.89,-29.91 z
M 129.91,-29.91 L 129.91,-39.89 L 139.89,-39.89 L 139.89,-29.91 z
M 139.91,-29.91 L 139.91,-39.89 L 148.9,-39.89 L 148.9,-29.91 z
M -30.09,-29.91 L -30.09,-39.89 L -20.11,-39.89 L -20.11,-29.91 z
M -20.09,-29.91 L -20.09,-39.89 L -10.11,-39.89 L -10.11,-29.91 z
M -140.09,-29.91 L -140.09,-39.89 L -130.11,-39.89 L -130.11,-29.91 z
M -130.09,-29.91 L -130.09,-39.89 L -120.11,-39.89 L -120.11,-29.91 z
M -120.09,-29.91 L -120.09,-39.89 L -110.11,-39.89 L -110.11,-29.91 z
M -110.09,-29.91 L -110.09,-39.89 L -101.1,-39.89 L -101.1,-29.91 z
M -90.09,-29.91 L -90.09,-39.89 L -80.11,-39.89 L -80.11,-29.91 z
M -80.09,-29.91 L -80.09,-39.89 L -70.11,-39.89 L -70.11,-29.91 z
M -70.09,-29.91 L -70.09,-39.89 L -60.11,-39.89 L -60.11,-29.91 z
M -60.09,-29.91 L -60.09,-39.89 L -51.1,-39.89 L -51.1,-29.91 z
M -40.09,-29.91 L -40.09,-39.89 L -30.11,-39.89 L -30.11,-29.91 z
M -10.09,-29.91 L -10.09,-39.89 L -1.09999,-39.89 L -1.09999,-29.91 z
M -49.1,-29.91 L -49.1,-39.89 L -40.11,-39.89 L -40.11,-29.91 z
M -99.1,-29.91 L -99.1,-39.89 L -90.11,-39.89 L -90.11,-29.91 z
M 100.9,-29.91 L 100.9,-39.89 L 109.89,-39.89 L 109.89,-29.91 z
M 50.9,-29.91 L 50.9,-39.89 L 59.89,-39.89 L 59.89,-29.91 z
M 0.899994,-29.91 L 0.899994,-39.89 L 9.89,-39.89 L 9.89,-29.91 z
M -149.1,-29.89 L -140.11,-29.89 L -140.11,-19.91 L -149.1,-19.91 z
M 139.91,-19.91 L 139.91,-29.89 L 148.9,-29.89 L 148.9,-19.91 z
M 9.90999,-19.91 L 9.90999,-29.89 L 19.89,-29.89 L 19.89,-19.91 z
M 19.91,-19.91 L 19.91,-29.89 L 29.89,-29.89 L 29.89,-19.91 z
M 29.91,-19.91 L 29.91,-29.89 L 39.89,-29.89 L 39.89,-19.91 z
M 39.91,-19.91 L 39.91,-29.89 L 48.9,-29.89 L 48.9,-19.91 z
M 59.91,-19.91 L 59.91,-29.89 L 69.89,-29.89 L 69.89,-19.91 z
M 69.91,-19.91 L 69.91,-29.89 L 79.89,-29.89 L 79.89,-19.91 z
M 79.91,-19.91 L 79.91,-29.89 L 89.89,-29.89 L 89.89,-19.91 z
M 89.91,-19.91 L 89.91,-29.89 L 98.9,-29.89 L 98.9,-19.91 z
M 109.91,-19.91 L 109.91,-29.89 L 119.89,-29.89 L 119.89,-19.91 z
M 129.91,-19.91 L 129.91,-29.89 L 139.89,-29.89 L 139.89,-19.91 z
M 119.91,-19.91 L 119.91,-29.89 L 129.89,-29.89 L 129.89,-19.91 z
M -30.09,-19.91 L -30.09,-29.89 L -20.11,-29.89 L -20.11,-19.91 z
M -20.09,-19.91 L -20.09,-29.89 L -10.11,-29.89 L -10.11,-19.91 z
M -10.09,-19.91 L -10.09,-29.89 L -1.09999,-29.89 L -1.09999,-19.91 z
M -140.09,-19.91 L -140.09,-29.89 L -130.11,-29.89 L -130.11,-19.91 z
M -130.09,-19.91 L -130.09,-29.89 L -120.11,-29.89 L -120.11,-19.91 z
M -120.09,-19.91 L -120.09,-29.89 L -110.11,-29.89 L -110.11,-19.91 z
M -110.09,-19.91 L -110.09,-29.89 L -101.1,-29.89 L -101.1,-19.91 z
M -80.09,-19.91 L -80.09,-29.89 L -70.11,-29.89 L -70.11,-19.91 z
M -70.09,-19.91 L -70.09,-29.89 L -60.11,-29.89 L -60.11,-19.91 z
M -60.09,-19.91 L -60.09,-29.89 L -51.1,-29.89 L -51.1,-19.91 z
M -40.09,-19.91 L -40.09,-29.89 L -30.11,-29.89 L -30.11,-19.91 z
M -90.09,-19.91 L -90.09,-29.89 L -80.11,-29.89 L -80.11,-19.91 z
M -49.1,-19.91 L -49.1,-29.89 L -40.11,-29.89 L -40.11,-19.91 z
M -99.1,-19.91 L -99.1,-29.89 L -90.11,-29.89 L -90.11,-19.91 z
M 100.9,-19.91 L 100.9,-29.89 L 109.89,-29.89 L 109.89,-19.91 z
M 50.9,-19.91 L 50.9,-29.89 L 59.89,-29.89 L 59.89,-19.91 z
M 0.899994,-19.91 L 0.899994,-29.89 L 9.89,-29.89 L 9.89,-19.91 z
M -149.1,-19.89 L -140.11,-19.89 L -140.11,-9.90999 L -149.1,-9.90999 z
M -10.09,-9.90999 L -10.09,-19.89 L -1.09999,-19.89 L -1.09999,-9.90999 z
M 9.90999,-9.90999 L 9.90999,-19.89 L 19.89,-19.89 L 19.89,-9.90999 z
M 19.91,-9.90999 L 19.91,-19.89 L 29.89,-19.89 L 29.89,-9.90999 z
M 29.91,-9.90999 L 29.91,-19.89 L 39.89,-19.89 L 39.89,-9.90999 z
M 39.91,-9.90999 L 39.91,-19.89 L 48.9,-19.89 L 48.9,-9.90999 z
M 59.91,-9.90999 L 59.91,-19.89 L 69.89,-19.89 L 69.89,-9.90999 z
M 69.91,-9.90999 L 69.91,-19.89 L 79.89,-19.89 L 79.89,-9.90999 z
M 79.91,-9.90999 L 79.91,-19.89 L 89.89,-19.89 L 89.89,-9.90999 z
M 89.91,-9.90999 L 89.91,-19.89 L 98.9,-19.89 L 98.9,-9.90999 z
M 109.91,-9.90999 L 109.91,-19.89 L 119.89,-19.89 L 119.89,-9.90999 z
M 119.91,-9.90999 L 119.91,-19.89 L 129.89,-19.89 L 129.89,-9.90999 z
M 129.91,-9.90999 L 129.91,-19.89 L 139.89,-19.89 L 139.89,-9.90999 z
M 139.91,-9.90999 L 139.91,-19.89 L 148.9,-19.89 L 148.9,-9.90999 z
M -30.09,-9.90999 L -30.09,-19.89 L -20.11,-19.89 L -20.11,-9.90999 z
M -20.09,-9.90999 L -20.09,-19.89 L -10.11,-19.89 L -10.11,-9.90999 z
M -140.09,-9.90999 L -140.09,-19.89 L -130.11,-19.89 L -130.11,-9.90999 z
M -130.09,-9.90999 L -130.09,-19.89 L -120.11,-19.89 L -120.11,-9.90999 z
M -120.09,-9.90999 L -120.09,-19.89 L -110.11,-19.89 L -110.11,-9.90999 z
M -110.09,-9.90999 L -110.09,-19.89 L -101.1,-19.89 L -101.1,-9.90999 z
M -90.09,-9.90999 L -90.09,-19.89 L -80.11,-19.89 L -80.11,-9.90999 z
M -80.09,-9.90999 L -80.09,-19.89 L -70.11,-19.89 L -70.11,-9.90999 z
M -70.09,-9.90999 L -70.09,-19.89 L -60.11,-19.89 L -60.11,-9.90999 z
M -60.09,-9.90999 L -60.09,-19.89 L -51.1,-19.89 L -51.1,-9.90999 z
M -40.09,-9.90999 L -40.09,-19.89 L -30.11,-19.89 L -30.11,-9.90999 z
M -49.1,-9.90999 L -49.1,-19.89 L -40.11,-19.89 L -40.11,-9.90999 z
M -99.1,-9.90999 L -99.1,-19.89 L -90.11,-19.89 L -90.11,-9.90999 z
M 100.9,-9.90999 L 100.9,-19.89 L 109.89,-19.89 L 109.89,-9.90999 z
M 50.9,-9.90999 L 50.9,-19.89 L 59.89,-19.89 L 59.89,-9.90999 z
M 0.899994,-9.90999 L 0.899994,-19.89 L 9.89,-19.89 L 9.89,-9.90999 z
M -149.1,-0.899994 L -149.1,-9.89 L -140.11,-9.89 L -140.11,-0.899994 z
M 9.90999,-0.899994 L 9.90999,-9.89 L 19.89,-9.89 L 19.89,-0.899994 z
M 19.91,-0.899994 L 19.91,-9.89 L 29.89,-9.89 L 29.89,-0.899994 z
M 29.91,-0.899994 L 29.91,-9.89 L 39.89,-9.89 L 39.89,-0.899994 z
M 39.91,-0.899994 L 39.91,-9.89 L 48.9,-9.89 L 48.9,-0.899994 z
M 139.91,-0.899994 L 139.91,-9.89 L 148.9,-9.89 L 148.9,-0.899994 z
M 59.91,-0.899994 L 59.91,-9.89 L 69.89,-9.89 L 69.89,-0.899994 z
M 69.91,-0.899994 L 69.91,-9.89 L 79.89,-9.89 L 79.89,-0.899994 z
M 79.91,-0.899994 L 79.91,-9.89 L 89.89,-9.89 L 89.89,-0.899994 z
M 89.91,-0.899994 L 89.91,-9.89 L 98.9,-9.89 L 98.9,-0.899994 z
M 109.91,-0.899994 L 109.91,-9.89 L 119.89,-9.89 L 119.89,-0.899994 z
M -70.09,-0.899994 L -70.09,-9.89 L -60.11,-9.89 L -60.11,-0.899994 z
M 119.91,-0.899994 L 119.91,-9.89 L 129.89,-9.89 L 129.89,-0.899994 z
M 129.91,-0.899994 L 129.91,-9.89 L 139.89,-9.89 L 139.89,-0.899994 z
M -20.09,-0.899994 L -20.09,-9.89 L -10.11,-9.89 L -10.11,-0.899994 z
M -10.09,-0.899994 L -10.09,-9.89 L -1.09999,-9.89 L -1.09999,-0.899994 z
M -140.09,-0.899994 L -140.09,-9.89 L -130.11,-9.89 L -130.11,-0.899994 z
M -130.09,-0.899994 L -130.09,-9.89 L -120.11,-9.89 L -120.11,-0.899994 z
M -120.09,-0.899994 L -120.09,-9.89 L -110.11,-9.89 L -110.11,-0.899994 z
M -110.09,-0.899994 L -110.09,-9.89 L -101.1,-9.89 L -101.1,-0.899994 z
M -90.09,-0.899994 L -90.09,-9.89 L -80.11,-9.89 L -80.11,-0.899994 z
M -80.09,-0.899994 L -80.09,-9.89 L -70.11,-9.89 L -70.11,-0.899994 z
M -60.09,-0.899994 L -60.09,-9.89 L -51.1,-9.89 L -51.1,-0.899994 z
M -40.09,-0.899994 L -40.09,-9.89 L -30.11,-9.89 L -30.11,-0.899994 z
M -30.09,-0.899994 L -30.09,-9.89 L -20.11,-9.89 L -20.11,-0.899994 z
M -49.1,-0.899994 L -49.1,-9.89 L -40.11,-9.89 L -40.11,-0.899994 z
M -99.1,-0.899994 L -99.1,-9.89 L -90.11,-9.89 L -90.11,-0.899994 z
M 100.9,-0.899994 L 100.9,-9.89 L 109.89,-9.89 L 109.89,-0.899994 z
M 50.9,-0.899994 L 50.9,-9.89 L 59.89,-9.89 L 59.89,-0.899994 z
M 0.899994,-0.899994 L 0.899994,-9.89 L 9.89,-9.89 L 9.89,-0.899994 z
M 100.9,10.09 L 100.9,1.09999 L 109.89,1.09999 L 109.89,10.09 z
M -49.1,10.09 L -49.1,1.09999 L -40.11,1.09999 L -40.11,10.09 z
M 0.899994,10.09 L 0.899994,1.09999 L 9.89,1.09999 L 9.89,10.09 z
M 50.9,10.09 L 50.9,1.09999 L 59.89,1.09999 L 59.89,10.09 z
M -149.1,1.09999 L -140.11,1.09999 L -140.11,10.09 L -149.1,10.09 z
M -99.1,10.09 L -99.1,1.09999 L -90.11,1.09999 L -90.11,10.09 z
M -90.09,10.09 L -90.09,1.09999 L -80.11,1.09999 L -80.11,10.09 z
M -80.09,10.09 L -80.09,1.09999 L -70.11,1.09999 L -70.11,10.09 z
M -70.09,10.09 L -70.09,1.09999 L -60.11,1.09999 L -60.11,10.09 z
M -60.09,10.09 L -60.09,1.09999 L -51.1,1.09999 L -51.1,10.09 z
M -140.09,10.09 L -140.09,1.09999 L -130.11,1.09999 L -130.11,10.09 z
M -130.09,10.09 L -130.09,1.09999 L -120.11,1.09999 L -120.11,10.09 z
M -120.09,10.09 L -120.09,1.09999 L -110.11,1.09999 L -110.11,10.09 z
M -110.09,10.09 L -110.09,1.09999 L -101.1,1.09999 L -101.1,10.09 z
M 59.91,10.09 L 59.91,1.09999 L 69.89,1.09999 L 69.89,10.09 z
M 69.91,10.09 L 69.91,1.09999 L 79.89,1.09999 L 79.89,10.09 z
M 79.91,10.09 L 79.91,1.09999 L 89.89,1.09999 L 89.89,10.09 z
M 89.91,10.09 L 89.91,1.09999 L 98.9,1.09999 L 98.9,10.09 z
M 9.90999,10.09 L 9.90999,1.09999 L 19.89,1.09999 L 19.89,10.09 z
M 19.91,10.09 L 19.91,1.09999 L 29.89,1.09999 L 29.89,10.09 z
M 29.91,10.09 L 29.91,1.09999 L 39.89,1.09999 L 39.89,10.09 z
M 39.91,10.09 L 39.91,1.09999 L 48.9,1.09999 L 48.9,10.09 z
M -40.09,10.09 L -40.09,1.09999 L -30.11,1.09999 L -30.11,10.09 z
M -30.09,10.09 L -30.09,1.09999 L -20.11,1.09999 L -20.11,10.09 z
M -20.09,10.09 L -20.09,1.09999 L -10.11,1.09999 L -10.11,10.09 z
M -10.09,10.09 L -10.09,1.09999 L -1.09999,1.09999 L -1.09999,10.09 z
M 109.91,10.09 L 109.91,1.09999 L 119.89,1.09999 L 119.89,10.09 z
M 119.91,10.09 L 119.91,1.09999 L 129.89,1.09999 L 129.89,10.09 z
M 129.91,10.09 L 129.91,1.09999 L 139.89,1.09999 L 139.89,10.09 z
M 139.91,10.09 L 139.91,1.09999 L 148.9,1.09999 L 148.9,10.09 z
M -149.1,10.11 L -140.11,10.11 L -140.11,20.09 L -149.1,20.09 z
M 29.91,20.09 L 29.91,10.11 L 39.89,10.11 L 39.89,20.09 z
M 39.91,20.09 L 39.91,10.11 L 48.9,10.11 L 48.9,20.09 z
M 59.91,20.09 L 59.91,10.11 L 69.89,10.11 L 69.89,20.09 z
M 69.91,20.09 L 69.91,10.11 L 79.89,10.11 L 79.89,20.09 z
M 79.91,20.09 L 79.91,10.11 L 89.89,10.11 L 89.89,20.09 z
M 89.91,20.09 L 89.91,10.11 L 98.9,10.11 L 98.9,20.09 z
M 109.91,20.09 L 109.91,10.11 L 119.89,10.11 L 119.89,20.09 z
M 119.91,20.09 L 119.91,10.11 L 129.89,10.11 L 129.89,20.09 z
M 129.91,20.09 L 129.91,10.11 L 139.89,10.11 L 139.89,20.09 z
M 139.91,20.09 L 139.91,10.11 L 148.9,10.11 L 148.9,20.09 z
M -120.09,20.09 L -120.09,10.11 L -110.11,10.11 L -110.11,20.09 z
M 19.91,20.09 L 19.91,10.11 L 29.89,10.11 L 29.89,20.09 z
M -110.09,20.09 L -110.09,10.11 L -101.1,10.11 L -101.1,20.09 z
M -130.09,20.09 L -130.09,10.11 L -120.11,10.11 L -120.11,20.09 z
M -90.09,20.09 L -90.09,10.11 L -80.11,10.11 L -80.11,20.09 z
M -80.09,20.09 L -80.09,10.11 L -70.11,10.11 L -70.11,20.09 z
M -70.09,20.09 L -70.09,10.11 L -60.11,10.11 L -60.11,20.09 z
M 9.90999,20.09 L 9.90999,10.11 L 19.89,10.11 L 19.89,20.09 z
M -140.09,20.09 L -140.09,10.11 L -130.11,10.11 L -130.11,20.09 z
M -10.09,20.09 L -10.09,10.11 L -1.09999,10.11 L -1.09999,20.09 z
M -30.09,20.09 L -30.09,10.11 L -20.11,10.11 L -20.11,20.09 z
M -60.09,20.09 L -60.09,10.11 L -51.1,10.11 L -51.1,20.09 z
M -40.09,20.09 L -40.09,10.11 L -30.11,10.11 L -30.11,20.09 z
M -20.09,20.09 L -20.09,10.11 L -10.11,10.11 L -10.11,20.09 z
M -49.1,20.09 L -49.1,10.11 L -40.11,10.11 L -40.11,20.09 z
M -99.1,20.09 L -99.1,10.11 L -90.11,10.11 L -90.11,20.09 z
M 0.899994,20.09 L 0.899994,10.11 L 9.89,10.11 L 9.89,20.09 z
M 100.9,20.09 L 100.9,10.11 L 109.89,10.11 L 109.89,20.09 z
M 50.9,20.09 L 50.9,10.11 L 59.89,10.11 L 59.89,20.09 z
M -149.1,20.11 L -140.11,20.11 L -140.11,30.09 L -149.1,30.09 z
M 19.91,30.09 L 19.91,20.11 L 29.89,20.11 L 29.89,30.09 z
M 139.91,30.09 L 139.91,20.11 L 148.9,20.11 L 148.9,30.09 z
M 129.91,30.09 L 129.91,20.11 L 139.89,20.11 L 139.89,30.09 z
M 119.91,30.09 L 119.91,20.11 L 129.89,20.11 L 129.89,30.09 z
M 109.91,30.09 L 109.91,20.11 L 119.89,20.11 L 119.89,30.09 z
M 89.91,30.09 L 89.91,20.11 L 98.9,20.11 L 98.9,30.09 z
M 79.91,30.09 L 79.91,20.11 L 89.89,20.11 L 89.89,30.09 z
M 69.91,30.09 L 69.91,20.11 L 79.89,20.11 L 79.89,30.09 z
M 59.91,30.09 L 59.91,20.11 L 69.89,20.11 L 69.89,30.09 z
M 39.91,30.09 L 39.91,20.11 L 48.9,20.11 L 48.9,30.09 z
M 29.91,30.09 L 29.91,20.11 L 39.89,20.11 L 39.89,30.09 z
M -140.09,30.09 L -140.09,20.11 L -130.11,20.11 L -130.11,30.09 z
M -130.09,30.09 L -130.09,20.11 L -120.11,20.11 L -120.11,30.09 z
M -120.09,30.09 L -120.09,20.11 L -110.11,20.11 L -110.11,30.09 z
M -110.09,30.09 L -110.09,20.11 L -101.1,20.11 L -101.1,30.09 z
M -90.09,30.09 L -90.09,20.11 L -80.11,20.11 L -80.11,30.09 z
M -80.09,30.09 L -80.09,20.11 L -70.11,20.11 L -70.11,30.09 z
M -60.09,30.09 L -60.09,20.11 L -51.1,20.11 L -51.1,30.09 z
M -40.09,30.09 L -40.09,20.11 L -30.11,20.11 L -30.11,30.09 z
M -30.09,30.09 L -30.09,20.11 L -20.11,20.11 L -20.11,30.09 z
M -20.09,30.09 L -20.09,20.11 L -10.11,20.11 L -10.11,30.09 z
M -10.09,30.09 L -10.09,20.11 L -1.09999,20.11 L -1.09999,30.09 z
M 9.90999,30.09 L 9.90999,20.11 L 19.89,20.11 L 19.89,30.09 z
M -70.09,30.09 L -70.09,20.11 L -60.11,20.11 L -60.11,30.09 z
M -49.1,30.09 L -49.1,20.11 L -40.11,20.11 L -40.11,30.09 z
M -99.1,30.09 L -99.1,20.11 L -90.11,20.11 L -90.11,30.09 z
M 0.899994,30.09 L 0.899994,20.11 L 9.89,20.11 L 9.89,30.09 z
M 50.9,30.09 L 50.9,20.11 L 59.89,20.11 L 59.89,30.09 z
M 100.9,30.09 L 100.9,20.11 L 109.89,20.11 L 109.89,30.09 z
M -149.1,30.11 L -140.11,30.11 L -140.11,40.09 L -149.1,40.09 z
M 29.91,40.09 L 29.91,30.11 L 39.89,30.11 L 39.89,40.09 z
M 39.91,40.09 L 39.91,30.11 L 48.9,30.11 L 48.9,40.09 z
M 59.91,40.09 L 59.91,30.11 L 69.89,30.11 L 69.89,40.09 z
M 69.91,40.09 L 69.91,30.11 L 79.89,30.11 L 79.89,40.09 z
M 79.91,40.09 L 79.91,30.11 L 89.89,30.11 L 89.89,40.09 z
M 89.91,40.09 L 89.91,30.11 L 98.9,30.11 L 98.9,40.09 z
M 109.91,40.09 L 109.91,30.11 L 119.89,30.11 L 119.89,40.09 z
M 119.91,40.09 L 119.91,30.11 L 129.89,30.11 L 129.89,40.09 z
M 129.91,40.09 L 129.91,30.11 L 139.89,30.11 L 139.89,40.09 z
M 139.91,40.09 L 139.91,30.11 L 148.9,30.11 L 148.9,40.09 z
M 19.91,40.09 L 19.91,30.11 L 29.89,30.11 L 29.89,40.09 z
M 9.90999,40.09 L 9.90999,30.11 L 19.89,30.11 L 19.89,40.09 z
M -140.09,40.09 L -140.09,30.11 L -130.11,30.11 L -130.11,40.09 z
M -130.09,40.09 L -130.09,30.11 L -120.11,30.11 L -120.11,40.09 z
M -120.09,40.09 L -120.09,30.11 L -110.11,30.11 L -110.11,40.09 z
M -110.09,40.09 L -110.09,30.11 L -101.1,30.11 L -101.1,40.09 z
M -90.09,40.09 L -90.09,30.11 L -80.11,30.11 L -80.11,40.09 z
M -80.09,40.09 L -80.09,30.11 L -70.11,30.11 L -70.11,40.09 z
M -70.09,40.09 L -70.09,30.11 L -60.11,30.11 L -60.11,40.09 z
M -40.09,40.09 L -40.09,30.11 L -30.11,30.11 L -30.11,40.09 z
M -30.09,40.09 L -30.09,30.11 L -20.11,30.11 L -20.11,40.09 z
M -20.09,40.09 L -20.09,30.11 L -10.11,30.11 L -10.11,40.09 z
M -10.09,40.09 L -10.09,30.11 L -1.09999,30.11 L -1.09999,40.09 z
M -60.09,40.09 L -60.09,30.11 L -51.1,30.11 L -51.1,40.09 z
M 0.899994,40.09 L 0.899994,30.11 L 9.89,30.11 L 9.89,40.09 z
M -49.1,40.09 L -49.1,30.11 L -40.11,30.11 L -40.11,40.09 z
M -99.1,40.09 L -99.1,30.11 L -90.11,30.11 L -90.11,40.09 z
M 100.9,40.09 L 100.9,30.11 L 109.89,30.11 L 109.89,40.09 z
M 50.9,40.09 L 50.9,30.11 L 59.89,30.11 L 59.89,40.09 z
M -149.1,49.1 L -149.1,40.11 L -140.11,40.11 L -140.11,49.1 z
M 29.91,49.1 L 29.91,40.11 L 39.89,40.11 L 39.89,49.1 z
M 39.91,49.1 L 39.91,40.11 L 48.9,40.11 L 48.9,49.1 z
M 59.91,49.1 L 59.91,40.11 L 69.89,40.11 L 69.89,49.1 z
M 69.91,49.1 L 69.91,40.11 L 79.89,40.11 L 79.89,49.1 z
M 79.91,49.1 L 79.91,40.11 L 89.89,40.11 L 89.89,49.1 z
M 89.91,49.1 L 89.91,40.11 L 98.9,40.11 L 98.9,49.1 z
M 109.91,49.1 L 109.91,40.11 L 119.89,40.11 L 119.89,49.1 z
M 119.91,49.1 L 119.91,40.11 L 129.89,40.11 L 129.89,49.1 z
M 129.91,49.1 L 129.91,40.11 L 139.89,40.11 L 139.89,49.1 z
M 139.91,49.1 L 139.91,40.11 L 148.9,40.11 L 148.9,49.1 z
M 19.91,49.1 L 19.91,40.11 L 29.89,40.11 L 29.89,49.1 z
M 9.90999,49.1 L 9.90999,40.11 L 19.89,40.11 L 19.89,49.1 z
M -140.09,49.1 L -140.09,40.11 L -130.11,40.11 L -130.11,49.1 z
M -130.09,49.1 L -130.09,40.11 L -120.11,40.11 L -120.11,49.1 z
M -120.09,49.1 L -120.09,40.11 L -110.11,40.11 L -110.11,49.1 z
M -110.09,49.1 L -110.09,40.11 L -101.1,40.11 L -101.1,49.1 z
M -90.09,49.1 L -90.09,40.11 L -80.11,40.11 L -80.11,49.1 z
M -80.09,49.1 L -80.09,40.11 L -70.11,40.11 L -70.11,49.1 z
M -70.09,49.1 L -70.09,40.11 L -60.11,40.11 L -60.11,49.1 z
M -40.09,49.1 L -40.09,40.11 L -30.11,40.11 L -30.11,49.1 z
M -30.09,49.1 L -30.09,40.11 L -20.11,40.11 L -20.11,49.1 z
M -20.09,49.1 L -20.09,40.11 L -10.11,40.11 L -10.11,49.1 z
M -10.09,49.1 L -10.09,40.11 L -1.09999,40.11 L -1.09999,49.1 z
M -60.09,49.1 L -60.09,40.11 L -51.1,40.11 L -51.1,49.1 z
M 0.899994,49.1 L 0.899994,40.11 L 9.89,40.11 L 9.89,49.1 z
M -49.1,49.1 L -49.1,40.11 L -40.11,40.11 L -40.11,49.1 z
M -99.1,49.1 L -99.1,40.11 L -90.11,40.11 L -90.11,49.1 z
M 100.9,49.1 L 100.9,40.11 L 109.89,40.11 L 109.89,49.1 z
M 50.9,49.1 L 50.9,40.11 L 59.89,40.11 L 59.89,49.1 z
M 50.9,60.09 L 50.9,51.1 L 59.89,51.1 L 59.89,60.09 z
M 0.899994,60.09 L 0.899994,51.1 L 9.89,51.1 L 9.89,60.09 z
M 100.9,60.09 L 100.9,51.1 L 109.89,51.1 L 109.89,60.09 z
M -149.1,51.1 L -140.11,51.1 L -140.11,60.09 L -149.1,60.09 z
M -99.1,60.09 L -99.1,51.1 L -90.11,51.1 L -90.11,60.09 z
M -49.1,60.09 L -49.1,51.1 L -40.11,51.1 L -40.11,60.09 z
M -40.09,60.09 L -40.09,51.1 L -30.11,51.1 L -30.11,60.09 z
M -30.09,60.09 L -30.09,51.1 L -20.11,51.1 L -20.11,60.09 z
M -20.09,60.09 L -20.09,51.1 L -10.11,51.1 L -10.11,60.09 z
M -10.09,60.09 L -10.09,51.1 L -1.09999,51.1 L -1.09999,60.09 z
M -90.09,60.09 L -90.09,51.1 L -80.11,51.1 L -80.11,60.09 z
M -80.09,60.09 L -80.09,51.1 L -70.11,51.1 L -70.11,60.09 z
M -70.09,60.09 L -70.09,51.1 L -60.11,51.1 L -60.11,60.09 z
M -60.09,60.09 L -60.09,51.1 L -51.1,51.1 L -51.1,60.09 z
M -140.09,60.09 L -140.09,51.1 L -130.11,51.1 L -130.11,60.09 z
M -130.09,60.09 L -130.09,51.1 L -120.11,51.1 L -120.11,60.09 z
M -120.09,60.09 L -120.09,51.1 L -110.11,51.1 L -110.11,60.09 z
M -110.09,60.09 L -110.09,51.1 L -101.1,51.1 L -101.1,60.09 z
M 109.91,60.09 L 109.91,51.1 L 119.89,51.1 L 119.89,60.09 z
M 119.91,60.09 L 119.91,51.1 L 129.89,51.1 L 129.89,60.09 z
M 129.91,60.09 L 129.91,51.1 L 139.89,51.1 L 139.89,60.09 z
M 139.91,60.09 L 139.91,51.1 L 148.9,51.1 L 148.9,60.09 z
M 9.90999,60.09 L 9.90999,51.1 L 19.89,51.1 L 19.89,60.09 z
M 19.91,60.09 L 19.91,51.1 L 29.89,51.1 L 29.89,60.09 z
M 29.91,60.09 L 29.91,51.1 L 39.89,51.1 L 39.89,60.09 z
M 39.91,60.09 L 39.91,51.1 L 48.9,51.1 L 48.9,60.09 z
M 59.91,60.09 L 59.91,51.1 L 69.89,51.1 L 69.89,60.09 z
M 69.91,60.09 L 69.91,51.1 L 79.89,51.1 L 79.89,60.09 z
M 79.91,60.09 L 79.91,51.1 L 89.89,51.1 L 89.89,60.09 z
M 89.91,60.09 L 89.91,51.1 L 98.9,51.1 L 98.9,60.09 z
M -149.1,60.11 L -140.11,60.11 L -140.11,70.09 L -149.1,70.09 z
M -40.09,70.09 L -40.09,60.11 L -30.11,60.11 L -30.11,70.09 z
M -140.09,70.09 L -140.09,60.11 L -130.11,60.11 L -130.11,70.09 z
M -130.09,70.09 L -130.09,60.11 L -120.11,60.11 L -120.11,70.09 z
M -120.09,70.09 L -120.09,60.11 L -110.11,60.11 L -110.11,70.09 z
M -110.09,70.09 L -110.09,60.11 L -101.1,60.11 L -101.1,70.09 z
M -90.09,70.09 L -90.09,60.11 L -80.11,60.11 L -80.11,70.09 z
M -80.09,70.09 L -80.09,60.11 L -70.11,60.11 L -70.11,70.09 z
M -70.09,70.09 L -70.09,60.11 L -60.11,60.11 L -60.11,70.09 z
M -60.09,70.09 L -60.09,60.11 L -51.1,60.11 L -51.1,70.09 z
M 139.91,70.09 L 139.91,60.11 L 148.9,60.11 L 148.9,70.09 z
M 129.91,70.09 L 129.91,60.11 L 139.89,60.11 L 139.89,70.09 z
M 119.91,70.09 L 119.91,60.11 L 129.89,60.11 L 129.89,70.09 z
M 109.91,70.09 L 109.91,60.11 L 119.89,60.11 L 119.89,70.09 z
M 79.91,70.09 L 79.91,60.11 L 89.89,60.11 L 89.89,70.09 z
M -30.09,70.09 L -30.09,60.11 L -20.11,60.11 L -20.11,70.09 z
M -20.09,70.09 L -20.09,60.11 L -10.11,60.11 L -10.11,70.09 z
M -10.09,70.09 L -10.09,60.11 L -1.09999,60.11 L -1.09999,70.09 z
M 9.90999,70.09 L 9.90999,60.11 L 19.89,60.11 L 19.89,70.09 z
M 19.91,70.09 L 19.91,60.11 L 29.89,60.11 L 29.89,70.09 z
M 29.91,70.09 L 29.91,60.11 L 39.89,60.11 L 39.89,70.09 z
M 39.91,70.09 L 39.91,60.11 L 48.9,60.11 L 48.9,70.09 z
M 59.91,70.09 L 59.91,60.11 L 69.89,60.11 L 69.89,70.09 z
M 69.91,70.09 L 69.91,60.11 L 79.89,60.11 L 79.89,70.09 z
M 89.91,70.09 L 89.91,60.11 L 98.9,60.11 L 98.9,70.09 z
M 50.9,70.09 L 50.9,60.11 L 59.89,60.11 L 59.89,70.09 z
M 0.899994,70.09 L 0.899994,60.11 L 9.89,60.11 L 9.89,70.09 z
M -49.1,70.09 L -49.1,60.11 L -40.11,60.11 L -40.11,70.09 z
M 100.9,70.09 L 100.9,60.11 L 109.89,60.11 L 109.89,70.09 z
M -99.1,70.09 L -99.1,60.11 L -90.11,60.11 L -90.11,70.09 z
M -149.1,70.11 L -140.11,70.11 L -140.11,80.09 L -149.1,80.09 z
M 69.91,80.09 L 69.91,70.11 L 79.89,70.11 L 79.89,80.09 z
M 79.91,80.09 L 79.91,70.11 L 89.89,70.11 L 89.89,80.09 z
M 89.91,80.09 L 89.91,70.11 L 98.9,70.11 L 98.9,80.09 z
M 59.91,80.09 L 59.91,70.11 L 69.89,70.11 L 69.89,80.09 z
M 109.91,80.09 L 109.91,70.11 L 119.89,70.11 L 119.89,80.09 z
M 119.91,80.09 L 119.91,70.11 L 129.89,70.11 L 129.89,80.09 z
M 129.91,80.09 L 129.91,70.11 L 139.89,70.11 L 139.89,80.09 z
M 139.91,80.09 L 139.91,70.11 L 148.9,70.11 L 148.9,80.09 z
M 39.91,80.09 L 39.91,70.11 L 48.9,70.11 L 48.9,80.09 z
M -60.09,80.09 L -60.09,70.11 L -51.1,70.11 L -51.1,80.09 z
M -70.09,80.09 L -70.09,70.11 L -60.11,70.11 L -60.11,80.09 z
M -80.09,80.09 L -80.09,70.11 L -70.11,70.11 L -70.11,80.09 z
M -90.09,80.09 L -90.09,70.11 L -80.11,70.11 L -80.11,80.09 z
M -110.09,80.09 L -110.09,70.11 L -101.1,70.11 L -101.1,80.09 z
M -120.09,80.09 L -120.09,70.11 L -110.11,70.11 L -110.11,80.09 z
M -130.09,80.09 L -130.09,70.11 L -120.11,70.11 L -120.11,80.09 z
M -140.09,80.09 L -140.09,70.11 L -130.11,70.11 L -130.11,80.09 z
M -40.09,80.09 L -40.09,70.11 L -30.11,70.11 L -30.11,80.09 z
M -30.09,80.09 L -30.09,70.11 L -20.11,70.11 L -20.11,80.09 z
M -20.09,80.09 L -20.09,70.11 L -10.11,70.11 L -10.11,80.09 z
M -10.09,80.09 L -10.09,70.11 L -1.09999,70.11 L -1.09999,80.09 z
M 9.90999,80.09 L 9.90999,70.11 L 19.89,70.11 L 19.89,80.09 z
M 19.91,80.09 L 19.91,70.11 L 29.89,70.11 L 29.89,80.09 z
M 29.91,80.09 L 29.91,70.11 L 39.89,70.11 L 39.89,80.09 z
M -49.1,80.09 L -49.1,70.11 L -40.11,70.11 L -40.11,80.09 z
M 50.9,80.09 L 50.9,70.11 L 59.89,70.11 L 59.89,80.09 z
M -99.1,80.09 L -99.1,70.11 L -90.11,70.11 L -90.11,80.09 z
M 0.899994,80.09 L 0.899994,70.11 L 9.89,70.11 L 9.89,80.09 z
M 100.9,80.09 L 100.9,70.11 L 109.89,70.11 L 109.89,80.09 z
M -149.1,80.11 L -140.11,80.11 L -140.11,90.09 L -149.1,90.09 z
M 69.91,90.09 L 69.91,80.11 L 79.89,80.11 L 79.89,90.09 z
M -120.09,90.09 L -120.09,80.11 L -110.11,80.11 L -110.11,90.09 z
M 79.91,90.09 L 79.91,80.11 L 89.89,80.11 L 89.89,90.09 z
M 89.91,90.09 L 89.91,80.11 L 98.9,80.11 L 98.9,90.09 z
M 109.91,90.09 L 109.91,80.11 L 119.89,80.11 L 119.89,90.09 z
M 119.91,90.09 L 119.91,80.11 L 129.89,80.11 L 129.89,90.09 z
M 129.91,90.09 L 129.91,80.11 L 139.89,80.11 L 139.89,90.09 z
M 139.91,90.09 L 139.91,80.11 L 148.9,80.11 L 148.9,90.09 z
M -140.09,90.09 L -140.09,80.11 L -130.11,80.11 L -130.11,90.09 z
M -130.09,90.09 L -130.09,80.11 L -120.11,80.11 L -120.11,90.09 z
M -110.09,90.09 L -110.09,80.11 L -101.1,80.11 L -101.1,90.09 z
M -90.09,90.09 L -90.09,80.11 L -80.11,80.11 L -80.11,90.09 z
M -80.09,90.09 L -80.09,80.11 L -70.11,80.11 L -70.11,90.09 z
M -70.09,90.09 L -70.09,80.11 L -60.11,80.11 L -60.11,90.09 z
M -60.09,90.09 L -60.09,80.11 L -51.1,80.11 L -51.1,90.09 z
M -40.09,90.09 L -40.09,80.11 L -30.11,80.11 L -30.11,90.09 z
M -20.09,90.09 L -20.09,80.11 L -10.11,80.11 L -10.11,90.09 z
M -10.09,90.09 L -10.09,80.11 L -1.09999,80.11 L -1.09999,90.09 z
M 9.90999,90.09 L 9.90999,80.11 L 19.89,80.11 L 19.89,90.09 z
M 19.91,90.09 L 19.91,80.11 L 29.89,80.11 L 29.89,90.09 z
M 29.91,90.09 L 29.91,80.11 L 39.89,80.11 L 39.89,90.09 z
M 39.91,90.09 L 39.91,80.11 L 48.9,80.11 L 48.9,90.09 z
M 59.91,90.09 L 59.91,80.11 L 69.89,80.11 L 69.89,90.09 z
M -30.09,90.09 L -30.09,80.11 L -20.11,80.11 L -20.11,90.09 z
M 0.899994,90.09 L 0.899994,80.11 L 9.89,80.11 L 9.89,90.09 z
M -49.1,90.09 L -49.1,80.11 L -40.11,80.11 L -40.11,90.09 z
M -99.1,90.09 L -99.1,80.11 L -90.11,80.11 L -90.11,90.09 z
M 50.9,90.09 L 50.9,80.11 L 59.89,80.11 L 59.89,90.09 z
M 100.9,90.09 L 100.9,80.11 L 109.89,80.11 L 109.89,90.09 z
M -149.1,99.1 L -149.1,90.11 L -140.11,90.11 L -140.11,99.1 z
M 59.91,99.1 L 59.91,90.11 L 69.89,90.11 L 69.89,99.1 z
M 69.91,99.1 L 69.91,90.11 L 79.89,90.11 L 79.89,99.1 z
M 79.91,99.1 L 79.91,90.11 L 89.89,90.11 L 89.89,99.1 z
M 89.91,99.1 L 89.91,90.11 L 98.9,90.11 L 98.9,99.1 z
M 109.91,99.1 L 109.91,90.11 L 119.89,90.11 L 119.89,99.1 z
M 119.91,99.1 L 119.91,90.11 L 129.89,90.11 L 129.89,99.1 z
M 129.91,99.1 L 129.91,90.11 L 139.89,90.11 L 139.89,99.1 z
M 139.91,99.1 L 139.91,90.11 L 148.9,90.11 L 148.9,99.1 z
M 29.91,99.1 L 29.91,90.11 L 39.89,90.11 L 39.89,99.1 z
M 39.91,99.1 L 39.91,90.11 L 48.9,90.11 L 48.9,99.1 z
M -60.09,99.1 L -60.09,90.11 L -51.1,90.11 L -51.1,99.1 z
M -70.09,99.1 L -70.09,90.11 L -60.11,90.11 L -60.11,99.1 z
M -80.09,99.1 L -80.09,90.11 L -70.11,90.11 L -70.11,99.1 z
M -90.09,99.1 L -90.09,90.11 L -80.11,90.11 L -80.11,99.1 z
M -110.09,99.1 L -110.09,90.11 L -101.1,90.11 L -101.1,99.1 z
M -120.09,99.1 L -120.09,90.11 L -110.11,90.11 L -110.11,99.1 z
M -130.09,99.1 L -130.09,90.11 L -120.11,90.11 L -120.11,99.1 z
M -40.09,99.1 L -40.09,90.11 L -30.11,90.11 L -30.11,99.1 z
M -30.09,99.1 L -30.09,90.11 L -20.11,90.11 L -20.11,99.1 z
M -20.09,99.1 L -20.09,90.11 L -10.11,90.11 L -10.11,99.1 z
M -10.09,99.1 L -10.09,90.11 L -1.09999,90.11 L -1.09999,99.1 z
M 9.90999,99.1 L 9.90999,90.11 L 19.89,90.11 L 19.89,99.1 z
M 19.91,99.1 L 19.91,90.11 L 29.89,90.11 L 29.89,99.1 z
M -140.09,99.1 L -140.09,90.11 L -130.11,90.11 L -130.11,99.1 z
M 0.899994,99.1 L 0.899994,90.11 L 9.89,90.11 L 9.89,99.1 z
M -49.1,99.1 L -49.1,90.11 L -40.11,90.11 L -40.11,99.1 z
M -99.1,99.1 L -99.1,90.11 L -90.11,90.11 L -90.11,99.1 z
M 100.9,99.1 L 100.9,90.11 L 109.89,90.11 L 109.89,99.1 z
M 50.9,99.1 L 50.9,90.11 L 59.89,90.11 L 59.89,99.1 z
M 100.9,110.09 L 100.9,101.1 L 109.89,101.1 L 109.89,110.09 z
M -149.1,101.1 L -140.11,101.1 L -140.11,110.09 L -149.1,110.09 z
M -99.1,110.09 L -99.1,101.1 L -90.11,101.1 L -90.11,110.09 z
M -49.1,110.09 L -49.1,101.1 L -40.11,101.1 L -40.11,110.09 z
M 0.899994,110.09 L 0.899994,101.1 L 9.89,101.1 L 9.89,110.09 z
M 50.9,110.09 L 50.9,101.1 L 59.89,101.1 L 59.89,110.09 z
M 59.91,110.09 L 59.91,101.1 L 69.89,101.1 L 69.89,110.09 z
M 69.91,110.09 L 69.91,101.1 L 79.89,101.1 L 79.89,110.09 z
M 79.91,110.09 L 79.91,101.1 L 89.89,101.1 L 89.89,110.09 z
M 89.91,110.09 L 89.91,101.1 L 98.9,101.1 L 98.9,110.09 z
M 9.90999,110.09 L 9.90999,101.1 L 19.89,101.1 L 19.89,110.09 z
M 19.91,110.09 L 19.91,101.1 L 29.89,101.1 L 29.89,110.09 z
M 29.91,110.09 L 29.91,101.1 L 39.89,101.1 L 39.89,110.09 z
M 39.91,110.09 L 39.91,101.1 L 48.9,101.1 L 48.9,110.09 z
M -40.09,110.09 L -40.09,101.1 L -30.11,101.1 L -30.11,110.09 z
M -30.09,110.09 L -30.09,101.1 L -20.11,101.1 L -20.11,110.09 z
M -20.09,110.09 L -20.09,101.1 L -10.11,101.1 L -10.11,110.09 z
M -10.09,110.09 L -10.09,101.1 L -1.09999,101.1 L -1.09999,110.09 z
M -90.09,110.09 L -90.09,101.1 L -80.11,101.1 L -80.11,110.09 z
M -80.09,110.09 L -80.09,101.1 L -70.11,101.1 L -70.11,110.09 z
M -70.09,110.09 L -70.09,101.1 L -60.11,101.1 L -60.11,110.09 z
M -60.09,110.09 L -60.09,101.1 L -51.1,101.1 L -51.1,110.09 z
M -140.09,110.09 L -140.09,101.1 L -130.11,101.1 L -130.11,110.09 z
M -130.09,110.09 L -130.09,101.1 L -120.11,101.1 L -120.11,110.09 z
M -120.09,110.09 L -120.09,101.1 L -110.11,101.1 L -110.11,110.09 z
M -110.09,110.09 L -110.09,101.1 L -101.1,101.1 L -101.1,110.09 z
M 109.91,110.09 L 109.91,101.1 L 119.89,101.1 L 119.89,110.09 z
M 119.91,110.09 L 119.91,101.1 L 129.89,101.1 L 129.89,110.09 z
M 129.91,110.09 L 129.91,101.1 L 139.89,101.1 L 139.89,110.09 z
M 139.91,110.09 L 139.91,101.1 L 148.9,101.1 L 148.9,110.09 z
M -149.1,110.11 L -140.11,110.11 L -140.11,120.09 L -149.1,120.09 z
M 19.91,120.09 L 19.91,110.11 L 29.89,110.11 L 29.89,120.09 z
M -140.09,120.09 L -140.09,110.11 L -130.11,110.11 L -130.11,120.09 z
M -130.09,120.09 L -130.09,110.11 L -120.11,110.11 L -120.11,120.09 z
M -120.09,120.09 L -120.09,110.11 L -110.11,110.11 L -110.11,120.09 z
M -110.09,120.09 L -110.09,110.11 L -101.1,110.11 L -101.1,120.09 z
M -90.09,120.09 L -90.09,110.11 L -80.11,110.11 L -80.11,120.09 z
M -80.09,120.09 L -80.09,110.11 L -70.11,110.11 L -70.11,120.09 z
M -70.09,120.09 L -70.09,110.11 L -60.11,110.11 L -60.11,120.09 z
M -60.09,120.09 L -60.09,110.11 L -51.1,110.11 L -51.1,120.09 z
M -40.09,120.09 L -40.09,110.11 L -30.11,110.11 L -30.11,120.09 z
M -30.09,120.09 L -30.09,110.11 L -20.11,110.11 L -20.11,120.09 z
M -20.09,120.09 L -20.09,110.11 L -10.11,110.11 L -10.11,120.09 z
M -10.09,120.09 L -10.09,110.11 L -1.09999,110.11 L -1.09999,120.09 z
M 9.90999,120.09 L 9.90999,110.11 L 19.89,110.11 L 19.89,120.09 z
M 139.91,120.09 L 139.91,110.11 L 148.9,110.11 L 148.9,120.09 z
M 129.91,120.09 L 129.91,110.11 L 139.89,110.11 L 139.89,120.09 z
M 119.91,120.09 L 119.91,110.11 L 129.89,110.11 L 129.89,120.09 z
M 109.91,120.09 L 109.91,110.11 L 119.89,110.11 L 119.89,120.09 z
M 89.91,120.09 L 89.91,110.11 L 98.9,110.11 L 98.9,120.09 z
M 79.91,120.09 L 79.91,110.11 L 89.89,110.11 L 89.89,120.09 z
M 69.91,120.09 L 69.91,110.11 L 79.89,110.11 L 79.89,120.09 z
M 59.91,120.09 L 59.91,110.11 L 69.89,110.11 L 69.89,120.09 z
M 39.91,120.09 L 39.91,110.11 L 48.9,110.11 L 48.9,120.09 z
M 29.91,120.09 L 29.91,110.11 L 39.89,110.11 L 39.89,120.09 z
M 50.9,120.09 L 50.9,110.11 L 59.89,110.11 L 59.89,120.09 z
M 100.9,120.09 L 100.9,110.11 L 109.89,110.11 L 109.89,120.09 z
M 0.899994,120.09 L 0.899994,110.11 L 9.89,110.11 L 9.89,120.09 z
M -49.1,120.09 L -49.1,110.11 L -40.11,110.11 L -40.11,120.09 z
M -99.1,120.09 L -99.1,110.11 L -90.11,110.11 L -90.11,120.09 z
M -149.1,120.11 L -140.11,120.11 L -140.11,130.09 L -149.1,130.09 z
M -110.09,130.09 L -110.09,120.11 L -101.1,120.11 L -101.1,130.09 z
M -140.09,130.09 L -140.09,120.11 L -130.11,120.11 L -130.11,130.09 z
M -130.09,130.09 L -130.09,120.11 L -120.11,120.11 L -120.11,130.09 z
M 139.91,130.09 L 139.91,120.11 L 148.9,120.11 L 148.9,130.09 z
M 129.91,130.09 L 129.91,120.11 L 139.89,120.11 L 139.89,130.09 z
M 119.91,130.09 L 119.91,120.11 L 129.89,120.11 L 129.89,130.09 z
M 109.91,130.09 L 109.91,120.11 L 119.89,120.11 L 119.89,130.09 z
M 79.91,130.09 L 79.91,120.11 L 89.89,120.11 L 89.89,130.09 z
M -120.09,130.09 L -120.09,120.11 L -110.11,120.11 L -110.11,130.09 z
M -90.09,130.09 L -90.09,120.11 L -80.11,120.11 L -80.11,130.09 z
M -80.09,130.09 L -80.09,120.11 L -70.11,120.11 L -70.11,130.09 z
M -70.09,130.09 L -70.09,120.11 L -60.11,120.11 L -60.11,130.09 z
M -60.09,130.09 L -60.09,120.11 L -51.1,120.11 L -51.1,130.09 z
M -40.09,130.09 L -40.09,120.11 L -30.11,120.11 L -30.11,130.09 z
M -30.09,130.09 L -30.09,120.11 L -20.11,120.11 L -20.11,130.09 z
M -20.09,130.09 L -20.09,120.11 L -10.11,120.11 L -10.11,130.09 z
M -10.09,130.09 L -10.09,120.11 L -1.09999,120.11 L -1.09999,130.09 z
M 9.90999,130.09 L 9.90999,120.11 L 19.89,120.11 L 19.89,130.09 z
M 19.91,130.09 L 19.91,120.11 L 29.89,120.11 L 29.89,130.09 z
M 29.91,130.09 L 29.91,120.11 L 39.89,120.11 L 39.89,130.09 z
M 89.91,130.09 L 89.91,120.11 L 98.9,120.11 L 98.9,130.09 z
M 69.91,130.09 L 69.91,120.11 L 79.89,120.11 L 79.89,130.09 z
M 59.91,130.09 L 59.91,120.11 L 69.89,120.11 L 69.89,130.09 z
M 39.91,130.09 L 39.91,120.11 L 48.9,120.11 L 48.9,130.09 z
M 50.9,130.09 L 50.9,120.11 L 59.89,120.11 L 59.89,130.09 z
M 0.899994,130.09 L 0.899994,120.11 L 9.89,120.11 L 9.89,130.09 z
M -49.1,130.09 L -49.1,120.11 L -40.11,120.11 L -40.11,130.09 z
M -99.1,130.09 L -99.1,120.11 L -90.11,120.11 L -90.11,130.09 z
M 100.9,130.09 L 100.9,120.11 L 109.89,120.11 L 109.89,130.09 z
M -149.1,130.11 L -140.11,130.11 L -140.11,140.09 L -149.1,140.09 z
M 139.91,140.09 L 139.91,130.11 L 148.9,130.11 L 148.9,140.09 z
M -30.09,140.09 L -30.09,130.11 L -20.11,130.11 L -20.11,140.09 z
M -60.09,140.09 L -60.09,130.11 L -51.1,130.11 L -51.1,140.09 z
M -70.09,140.09 L -70.09,130.11 L -60.11,130.11 L -60.11,140.09 z
M -80.09,140.09 L -80.09,130.11 L -70.11,130.11 L -70.11,140.09 z
M -90.09,140.09 L -90.09,130.11 L -80.11,130.11 L -80.11,140.09 z
M -110.09,140.09 L -110.09,130.11 L -101.1,130.11 L -101.1,140.09 z
M -120.09,140.09 L -120.09,130.11 L -110.11,130.11 L -110.11,140.09 z
M -130.09,140.09 L -130.09,130.11 L -120.11,130.11 L -120.11,140.09 z
M -140.09,140.09 L -140.09,130.11 L -130.11,130.11 L -130.11,140.09 z
M 119.91,140.09 L 119.91,130.11 L 129.89,130.11 L 129.89,140.09 z
M -40.09,140.09 L -40.09,130.11 L -30.11,130.11 L -30.11,140.09 z
M -20.09,140.09 L -20.09,130.11 L -10.11,130.11 L -10.11,140.09 z
M -10.09,140.09 L -10.09,130.11 L -1.09999,130.11 L -1.09999,140.09 z
M 9.90999,140.09 L 9.90999,130.11 L 19.89,130.11 L 19.89,140.09 z
M 19.91,140.09 L 19.91,130.11 L 29.89,130.11 L 29.89,140.09 z
M 29.91,140.09 L 29.91,130.11 L 39.89,130.11 L 39.89,140.09 z
M 39.91,140.09 L 39.91,130.11 L 48.9,130.11 L 48.9,140.09 z
M 59.91,140.09 L 59.91,130.11 L 69.89,130.11 L 69.89,140.09 z
M 69.91,140.09 L 69.91,130.11 L 79.89,130.11 L 79.89,140.09 z
M 79.91,140.09 L 79.91,130.11 L 89.89,130.11 L 89.89,140.09 z
M 89.91,140.09 L 89.91,130.11 L 98.9,130.11 L 98.9,140.09 z
M 109.91,140.09 L 109.91,130.11 L 119.89,130.11 L 119.89,140.09 z
M 129.91,140.09 L 129.91,130.11 L 139.89,130.11 L 139.89,140.09 z
M 100.9,140.09 L 100.9,130.11 L 109.89,130.11 L 109.89,140.09 z
M 50.9,140.09 L 50.9,130.11 L 59.89,130.11 L 59.89,140.09 z
M 0.899994,140.09 L 0.899994,130.11 L 9.89,130.11 L 9.89,140.09 z
M -99.1,140.09 L -99.1,130.11 L -90.11,130.11 L -90.11,140.09 z
M -49.1,140.09 L -49.1,130.11 L -40.11,130.11 L -40.11,140.09 z
M -149.1,149.1 L -149.1,140.11 L -140.11,140.11 L -140.11,149.1 z
M 9.90999,149.1 L 9.90999,140.11 L 19.89,140.11 L 19.89,149.1 z
M 109.91,149.1 L 109.91,140.11 L 119.89,140.11 L 119.89,149.1 z
M 89.91,149.1 L 89.91,140.11 L 98.9,140.11 L 98.9,149.1 z
M 79.91,149.1 L 79.91,140.11 L 89.89,140.11 L 89.89,149.1 z
M 139.91,149.1 L 139.91,140.11 L 148.9,140.11 L 148.9,149.1 z
M 129.91,149.1 L 129.91,140.11 L 139.89,140.11 L 139.89,149.1 z
M 119.91,149.1 L 119.91,140.11 L 129.89,140.11 L 129.89,149.1 z
M 69.91,149.1 L 69.91,140.11 L 79.89,140.11 L 79.89,149.1 z
M 59.91,149.1 L 59.91,140.11 L 69.89,140.11 L 69.89,149.1 z
M 39.91,149.1 L 39.91,140.11 L 48.9,140.11 L 48.9,149.1 z
M 29.91,149.1 L 29.91,140.11 L 39.89,140.11 L 39.89,149.1 z
M 19.91,149.1 L 19.91,140.11 L 29.89,140.11 L 29.89,149.1 z
M -20.09,149.1 L -20.09,140.11 L -10.11,140.11 L -10.11,149.1 z
M -10.09,149.1 L -10.09,140.11 L -1.09999,140.11 L -1.09999,149.1 z
M -140.09,149.1 L -140.09,140.11 L -130.11,140.11 L -130.11,149.1 z
M -130.09,149.1 L -130.09,140.11 L -120.11,140.11 L -120.11,149.1 z
M -120.09,149.1 L -120.09,140.11 L -110.11,140.11 L -110.11,149.1 z
M -110.09,149.1 L -110.09,140.11 L -101.1,140.11 L -101.1,149.1 z
M -90.09,149.1 L -90.09,140.11 L -80.11,140.11 L -80.11,149.1 z
M -80.09,149.1 L -80.09,140.11 L -70.11,140.11 L -70.11,149.1 z
M -70.09,149.1 L -70.09,140.11 L -60.11,140.11 L -60.11,149.1 z
M -60.09,149.1 L -60.09,140.11 L -51.1,140.11 L -51.1,149.1 z
M -40.09,149.1 L -40.09,140.11 L -30.11,140.11 L -30.11,149.1 z
M -30.09,149.1 L -30.09,140.11 L -20.11,140.11 L -20.11,149.1 z
M -49.1,149.1 L -49.1,140.11 L -40.11,140.11 L -40.11,149.1 z
M -99.1,149.1 L -99.1,140.11 L -90.11,140.11 L -90.11,149.1 z
M 0.899994,149.1 L 0.899994,140.11 L 9.89,140.11 L 9.89,149.1 z
M 50.9,149.1 L 50.9,140.11 L 59.89,140.11 L 59.89,149.1 z
M 100.9,149.1 L 100.9,140.11 L 109.89,140.11 L 109.89,149.1 z
" stroke="black" fill="lightgray" stroke-width="0.5"/>
</svg>
